<svg width="159" height="173" viewBox="0 0 159 173" fill="none" xmlns="http://www.w3.org/2000/svg">
<path d="M89.7291 117.007C89.7291 97.2664 105.88 81.474 125.621 81.474H138.901C150.027 81.474 159 72.5012 159 61.3747H125.621C122.749 61.3747 119.878 61.7336 117.366 62.0926C111.264 62.8104 109.47 54.1964 115.212 52.4018C118.442 51.3251 122.032 50.9661 125.621 50.9661H138.901C150.027 50.9661 159 41.9932 159 30.8668H125.621C122.032 30.8668 118.801 31.2258 115.571 31.9436C109.828 33.0203 107.316 24.7652 113.059 22.6117C117.007 21.1761 121.314 20.0993 125.98 20.0993H138.901C150.027 20.0993 159 11.1264 159 0H125.98C95.1129 0 69.2709 24.7653 69.6298 55.2732C69.9887 75.3725 53.8375 91.5237 33.7382 91.5237H21.1761C10.0497 91.5237 1.07675 100.497 1.07675 111.623H33.3792C36.9684 111.623 40.1986 111.264 43.4289 110.546C49.1716 109.47 51.684 117.725 45.9413 119.878C41.9932 121.314 37.6862 122.391 33.0203 122.391H20.4582C9.33183 122.391 0.358914 131.363 0.358914 142.49H32.6614C35.5327 142.49 38.4041 142.131 40.9165 141.772C47.0181 141.054 48.8126 149.668 43.07 151.463C39.8397 152.539 36.2506 152.898 32.6614 152.898H20.0993C8.97291 152.898 0 161.871 0 172.998H32.3025C64.605 172.998 89.7291 147.874 89.7291 117.007Z" fill="white"/>
<rect x="32.3025" y="50.2483" width="28.7133" height="28.7133" rx="14.3567" fill="white"/>
<rect x="102.291" y="95.1129" width="25.1242" height="25.1242" rx="12.5621" stroke="white" stroke-width="3.58917"/>
</svg>
